<svg width="95" height="29" viewBox="0 0 95 29" fill="none" xmlns="http://www.w3.org/2000/svg">
<path d="M58.7232 22.8126C53.3123 26.8009 45.4696 28.9287 38.7171 28.9287C29.2491 28.9287 20.7255 25.4269 14.277 19.6026C13.7704 19.1446 14.2243 18.5204 14.8323 18.8771C21.7914 22.9261 30.3961 25.362 39.2846 25.362C45.2791 25.362 51.8735 24.1218 57.9369 21.5481C58.8529 21.159 59.6189 22.1479 58.7232 22.8126Z" fill="#FF9900"/>
<path d="M60.9733 20.239C60.2843 19.3554 56.4014 19.8215 54.6586 20.0282C54.1276 20.0931 54.0466 19.631 54.5248 19.2987C57.6173 17.1222 62.6918 17.7504 63.2836 18.4799C63.8753 19.2135 63.1295 24.3002 60.2235 26.728C59.7776 27.1009 59.3521 26.9023 59.5507 26.4078C60.2032 24.7784 61.6664 21.1266 60.9733 20.239Z" fill="#FF9900"/>
<path d="M54.7812 3.93319V1.81748C54.7812 1.49728 55.0244 1.28247 55.3163 1.28247H64.7883C65.0923 1.28247 65.3355 1.50134 65.3355 1.81748V3.62921C65.3314 3.93319 65.0761 4.33039 64.6222 4.95862L59.7139 11.9664C61.5378 11.9218 63.463 12.1934 65.1166 13.1256C65.4895 13.3364 65.5908 13.6444 65.6192 13.9484V16.206C65.6192 16.514 65.2788 16.8747 64.9221 16.6883C62.0079 15.1603 58.1372 14.9941 54.915 16.7045C54.5867 16.8828 54.2422 16.5261 54.2422 16.2181V14.074C54.2422 13.7295 54.2462 13.1418 54.5908 12.619L60.2772 4.46415H55.3284C55.0244 4.46415 54.7812 4.24933 54.7812 3.93319Z" fill="#221F1F"/>
<path d="M20.2285 17.1342H17.3468C17.0712 17.1139 16.8523 16.9072 16.832 16.6438V1.85403C16.832 1.55816 17.0793 1.32307 17.3873 1.32307H20.0745C20.3542 1.33523 20.5771 1.55005 20.5974 1.81755V3.75088H20.65C21.3512 1.8824 22.6685 1.01099 24.4437 1.01099C26.2474 1.01099 27.3741 1.8824 28.1847 3.75088C28.8819 1.8824 30.4666 1.01099 32.1649 1.01099C33.3727 1.01099 34.694 1.50952 35.5006 2.62817C36.4125 3.87247 36.2261 5.68015 36.2261 7.26491L36.222 16.5992C36.222 16.895 35.9748 17.1342 35.6667 17.1342H32.789C32.5013 17.1139 32.2703 16.8829 32.2703 16.5992V8.7605C32.2703 8.13632 32.327 6.57993 32.1892 5.98818C31.9744 4.99518 31.3299 4.71551 30.495 4.71551C29.7979 4.71551 29.0683 5.18162 28.7724 5.92739C28.4766 6.67315 28.5049 7.9215 28.5049 8.7605V16.5992C28.5049 16.895 28.2577 17.1342 27.9497 17.1342H25.072C24.7801 17.1139 24.5532 16.8829 24.5532 16.5992L24.5491 8.7605C24.5491 7.11089 24.8207 4.68309 22.7739 4.68309C20.7027 4.68309 20.7838 7.05009 20.7838 8.7605V16.5992C20.7838 16.895 20.5366 17.1342 20.2285 17.1342Z" fill="#221F1F"/>
<path d="M73.4889 1.01099C77.7649 1.01099 80.0792 4.68309 80.0792 9.35225C80.0792 13.8633 77.5217 17.4422 73.4889 17.4422C69.2899 17.4422 67.0039 13.7701 67.0039 9.19418C67.0039 4.58986 69.3182 1.01099 73.4889 1.01099ZM73.5132 4.03054C71.3894 4.03054 71.2556 6.92444 71.2556 8.72807C71.2556 10.5357 71.2272 14.3943 73.4889 14.3943C75.7221 14.3943 75.8275 11.2815 75.8275 9.38467C75.8275 8.13632 75.7748 6.64478 75.3979 5.46128C75.0736 4.4318 74.4292 4.03054 73.5132 4.03054Z" fill="#221F1F"/>
<path d="M85.6249 17.1342H82.7553C82.4675 17.1139 82.2365 16.8829 82.2365 16.5992L82.2324 1.80539C82.2567 1.53383 82.4959 1.32307 82.7877 1.32307H85.4587C85.71 1.33523 85.9167 1.50546 85.9734 1.73649V3.99811H86.0261C86.8327 1.97562 87.9635 1.01099 89.9536 1.01099C91.2465 1.01099 92.507 1.47709 93.3176 2.75381C94.0715 3.93732 94.0715 5.92739 94.0715 7.35813V16.6681C94.0391 16.9275 93.7999 17.1342 93.5162 17.1342H90.6264C90.3629 17.1139 90.1441 16.9194 90.1157 16.6681V8.63485C90.1157 7.01767 90.3021 4.65066 88.3121 4.65066C87.6109 4.65066 86.9664 5.12082 86.6462 5.83416C86.2409 6.738 86.1882 7.63779 86.1882 8.63485V16.5992C86.1842 16.895 85.9329 17.1342 85.6249 17.1342Z" fill="#221F1F"/>
<path d="M47.2295 10.0697V9.44548C45.1462 9.44548 42.9454 9.89132 42.9454 12.3475C42.9454 13.5918 43.5898 14.4348 44.6963 14.4348C45.5069 14.4348 46.2324 13.9363 46.6904 13.1257C47.2579 12.1286 47.2295 11.1924 47.2295 10.0697ZM50.1356 17.0937C49.9451 17.2639 49.6695 17.276 49.4546 17.1626C48.4981 16.3682 48.3279 15.9993 47.801 15.2414C46.2203 16.8545 45.1016 17.3368 43.0508 17.3368C40.627 17.3368 38.7383 15.8413 38.7383 12.846C38.7383 10.5074 40.0069 8.91453 41.8105 8.13633C43.375 7.4473 45.5596 7.32571 47.2295 7.13522V6.76233C47.2295 6.07736 47.2822 5.26674 46.8809 4.67499C46.5283 4.14404 45.8555 3.92517 45.2638 3.92517C44.1654 3.92517 43.1845 4.48855 42.9454 5.65584C42.8967 5.91524 42.7063 6.17058 42.4469 6.18274L39.6502 5.88281C39.4151 5.83012 39.1557 5.63963 39.2206 5.2789C39.865 1.89052 42.9251 0.869141 45.665 0.869141C47.0674 0.869141 48.8994 1.24202 50.0059 2.30393C51.4082 3.61308 51.2745 5.35996 51.2745 7.26086V11.7517C51.2745 13.1014 51.8338 13.6931 52.3607 14.4227C52.5472 14.6821 52.5877 14.9942 52.3526 15.1887C51.7649 15.6791 50.7192 16.5911 50.1437 17.1018L50.1356 17.0937Z" fill="#221F1F"/>
<path d="M9.45021 10.0697V9.44548C7.36692 9.44548 5.16609 9.89132 5.16609 12.3475C5.16609 13.5918 5.81053 14.4348 6.91703 14.4348C7.72764 14.4348 8.45315 13.9363 8.91115 13.1257C9.47858 12.1286 9.45021 11.1924 9.45021 10.0697ZM12.3563 17.0937C12.1658 17.2639 11.8902 17.276 11.6754 17.1626C10.7188 16.3682 10.5486 15.9993 10.0217 15.2414C8.44099 16.8545 7.32234 17.3368 5.27147 17.3368C2.84772 17.3368 0.958984 15.8413 0.958984 12.846C0.958984 10.5074 2.2276 8.91453 4.03123 8.13633C5.59572 7.4473 7.78033 7.32571 9.45021 7.13522V6.76233C9.45021 6.07736 9.5029 5.26674 9.10164 4.67499C8.74902 4.14404 8.07621 3.92517 7.48446 3.92517C6.38607 3.92517 5.40522 4.48855 5.16609 5.65584C5.11745 5.91524 4.92696 6.17058 4.66756 6.18274L1.87093 5.88281C1.63585 5.83012 1.37645 5.63963 1.4413 5.2789C2.08574 1.89052 5.14582 0.869141 7.88572 0.869141C9.28808 0.869141 11.1201 1.24202 12.2266 2.30393C13.6289 3.61308 13.4952 5.35996 13.4952 7.26086V11.7517C13.4952 13.1014 14.0545 13.6931 14.5814 14.4227C14.7679 14.6821 14.8084 14.9942 14.5733 15.1887C13.9856 15.6791 12.9399 16.5911 12.3644 17.1018L12.3563 17.0937Z" fill="#221F1F"/>
</svg>
