<?xml version="1.0" encoding="utf-8"?>
<!-- Generator: Adobe Illustrator 24.1.0, SVG Export Plug-In . SVG Version: 6.00 Build 0)  -->
<svg version="1.1" id="Zynga_x5F_Horiz_x5F_RGB" xmlns="http://www.w3.org/2000/svg" xmlns:xlink="http://www.w3.org/1999/xlink"
	 x="0px" y="0px" viewBox="0 0 270.4 96.02" style="enable-background:new 0 0 270.4 96.02;" xml:space="preserve">
<style type="text/css">
	.st0{fill:#DC0606;}
	.st1{fill:#FFFFFF;}
</style>
<g>
	<rect class="st0" width="270.4" height="96.02"/>
	<path class="st1" d="M109.05,62.85l1.41-6.95H92.92l15.39-25.05H81.07l-1.44,7.04H94.8L78.59,62.85H109.05z M125,73.75l17.11-42.9
		h-8.27l-7.78,20.88l-7.29-20.88h-8.92l11.71,30.45L116,73.75H125z M172.59,62.85V40.51c0-6.71-4.42-10.32-9.74-10.32
		c-4.91,0-8.02,2.29-10.32,5.16l-0.49-4.5h-7.78v32h8.27V42.15c2.46-3.11,5.16-4.34,7.61-4.34c2.46,0,4.18,1.23,4.18,5.24v19.81
		H172.59z M179.69,72.71c2.37,0.73,5.79,1.37,11.12,1.37c9.58,0,14.08-5.16,14.08-15.8V30.85h-7.7l-0.24,2.21
		c-1.72-1.55-4.75-2.87-7.86-2.87c-8.76,0-13.42,6.31-13.42,16.46c0,9.17,4.58,15.56,12.69,15.56c3.11,0,6.31-1.48,8.27-3.93v1.88
		c0,4.01-2.21,6.96-7.04,6.96c-4.1,0-6.47-0.74-8.43-1.47L179.69,72.71z M190.56,37.23c2.13,0,4.59,0.9,6.06,2.21v12.28
		c-1.55,1.8-4.09,3.19-7.04,3.19c-2.78,0-5.24-1.96-5.24-8.27C184.34,40.67,185.98,37.23,190.56,37.23z M237.23,62.85v-32h-7.7
		l-0.24,2.21c-1.72-1.55-4.75-2.87-7.86-2.87c-8.76,0-13.43,6.88-13.43,17.03c0,9.17,4.58,16.29,12.69,16.29
		c3.11,0,6.3-1.47,8.27-3.93l0.49,3.27H237.23z M222.9,37.23c2.13,0,4.59,0.9,6.06,2.21v13.59c-1.56,1.8-4.1,3.19-7.04,3.19
		c-2.78,0-5.24-2.7-5.24-9C216.68,41.24,218.31,37.23,222.9,37.23z"/>
	<g>
		<path class="st1" d="M243.9,57.73c1.43,0,2.63,1.13,2.63,2.61c0,1.51-1.2,2.63-2.63,2.63c-1.44,0-2.64-1.13-2.64-2.63
			C241.26,58.86,242.46,57.73,243.9,57.73z M243.9,62.59c1.21,0,2.15-0.97,2.15-2.25c0-1.25-0.94-2.22-2.15-2.22
			c-1.23,0-2.16,0.97-2.16,2.22C241.73,61.62,242.67,62.59,243.9,62.59z M242.88,58.82h1.18c0.73,0,1.07,0.29,1.07,0.88
			c0,0.55-0.35,0.79-0.81,0.83l0.88,1.35h-0.51l-0.83-1.32h-0.5v1.32h-0.48V58.82z M243.35,60.18h0.5c0.42,0,0.81-0.02,0.81-0.5
			c0-0.41-0.35-0.47-0.67-0.47h-0.63V60.18z"/>
	</g>
	<path class="st1" d="M62.22,21.65c0.75-0.92,1.9-1.76,3.43-0.38c1.53,1.38,2.85,2.58,2.43,2.99c-0.29,0.28-0.94-0.09-1.37-0.32
		c-0.55,0.27-0.81,0.65-0.97,1.3c-0.16,0.64-0.36,1.39-0.69,1.49c0.38,1.83,0.19,5.25-0.42,6.32l-0.01,1.93
		c1.66,2.99,2.78,11.11,0.59,14.85c0,0-0.03,4.82-0.96,6.94c0,0-1.05,4.58-0.75,7.01c0.5,0.22,1.75,0.96,1.97,1.38
		c0.22,0.41,0.32,1.06,0.27,1.23c-0.59,1.06-3.75,1.09-5.19,0.02c-0.33-1,0.21-4.92,0.06-7.25c-0.15-2.33-0.38-3.24-0.84-6.35
		c-1.96,0.47-4.17,0.59-6.44,0.36c-0.61,2.65-1.68,6.48-1.82,8.77c-0.1,1.69-0.25,6.64-0.25,6.64c0.04,0.51,0.35,0.88,0.4,1.21
		c0.06,0.43,0.15,1.12,0.03,1.47c-0.83,1.56-4.41,1.37-4.99,0.04c-0.03-0.34,0.08-1.23,0.27-1.48c0.2-0.34,1-0.9,1.18-1.32
		c0.2-1.64,0.41-7.76-0.04-9.14c-0.67-1.28-1.14-4.75-1.28-7.83c-0.36-0.15-2.23-1.18-3.99-2.3c-0.61,2.06-1.92,3.1-1.92,3.1
		l0.61,2.84c0.45,0.05,1.7,0.58,1.93,0.97c0.23,0.4,0.26,0.79,0.21,1.06c-0.39,0.68-3.1,0.59-3.61-0.08l-1.89-5.74
		c0,0,0.7-1.9,0.39-4.42c-5.81,0.62-7.55,8.07-8.21,11.6l0.12,0.52c0.02,0.12,0.04,0.71,0,0.87c-0.55,0.91-3.27,0.78-3.9,0.02
		c0-0.26,0.09-0.74,0.3-1.04c0.21-0.3,1.17-1.01,1.41-1.17l1.29-5.09c0.21-5.7,1.67-11.1,4.02-14.01c-3.21-4-2.9-8.45-0.3-10.78
		c0.27-0.24,0.73-0.53,0.89-0.43c0.19,0.11,0.13,0.3-0.17,0.74c-1.8,2.7-1.49,6.36,1.88,8.35c3.89-2.39,15.12-2.92,15.12-2.92
		l0.32-1.06c-0.23-0.41-0.61-2.36-0.5-3.37c-0.16-0.08-0.5-0.49-0.93-0.86c-0.45-0.39-1-0.39-1.17-0.67
		c-1.25,1.59-0.92-0.42-0.75-1.17c0.32-1.45,0.53-3.52,2.8-3.72c0.51-0.04,1.59,0.01,2.02,0.53c0.4-0.6,3.61-1.28,4.24-1.2
		C57.74,21.51,61.94,21.37,62.22,21.65z"/>
</g>
</svg>
