<svg width="617" height="211" viewBox="0 0 617 211" fill="none" xmlns="http://www.w3.org/2000/svg">
<path d="M394.299 206.674H361.637C360.207 206.674 358.907 205.799 358.322 204.438L302.261 65.8997C301.806 64.7982 301.936 63.5346 302.586 62.5626C303.236 61.5907 304.373 60.9751 305.543 60.9751H349.645C351.173 60.9751 352.538 61.9471 353.025 63.3726L380.194 140.644L407.754 63.2106C408.176 61.9471 409.541 61.0075 411.069 61.0075H455.43C456.665 61.0075 457.77 61.6231 458.453 62.6274C459.103 63.6318 459.233 64.8954 458.745 65.9969L397.582 204.535C396.964 205.864 395.664 206.674 394.299 206.674Z" fill="black"/>
<path d="M283.899 206.641H244.022C242.04 206.641 240.415 205.021 240.415 203.077V64.539C240.415 62.5626 242.04 60.9427 244.022 60.9427H283.899C285.881 60.9427 287.474 62.5626 287.474 64.539V203.077C287.474 205.054 285.849 206.641 283.899 206.641Z" fill="black"/>
<path d="M214.903 206.641H175.026C173.044 206.641 171.419 205.021 171.419 203.077V3.5963C171.419 1.61995 173.044 0 175.026 0H214.903C216.885 0 218.478 1.61995 218.478 3.5963V203.11C218.478 205.054 216.853 206.641 214.903 206.641Z" fill="black"/>
<path d="M49.646 87.9273C50.7907 87.5204 51.9413 87.1115 53.0884 86.6676H53.0559C53.1534 86.2788 53.1859 85.7928 52.7959 85.566C51.9029 85.235 51.0099 84.9191 50.121 84.6047C45.9632 83.1338 41.8948 81.6945 38.3337 78.8918C32.1588 74.032 29.6238 67.5197 27.3164 60.2299L26.6989 59.7116L26.1139 59.9059C25.4791 61.2948 24.9782 62.7694 24.4763 64.2471C24.0532 65.4927 23.6293 66.7407 23.124 67.9409C20.2315 74.7123 15.2591 79.7342 8.46676 82.6177C8.06881 82.7928 6.91212 83.1989 5.5842 83.6651L5.58242 83.6658C3.22357 84.494 0.324926 85.5118 0.179424 85.7604C-0.287798 86.5464 0.242015 86.757 0.802285 86.9796C0.865478 87.0047 0.929334 87.0302 0.991902 87.0564C2.35821 87.608 3.64508 88.0902 4.86781 88.5483L4.87163 88.5497C10.6851 90.7277 15.0502 92.363 19.614 98.3313C22.2094 101.721 23.5612 105.544 24.9439 109.455C25.2926 110.441 25.6433 111.433 26.0164 112.425C26.2439 112.781 26.9264 112.781 27.1864 112.425C29.6563 104.843 32.2238 98.0397 38.8212 93.0826C42.1398 90.5951 45.861 89.2725 49.646 87.9273Z" fill="black"/>
<path d="M32.5488 0.097205L32.5813 0.111117V0.162001C30.6638 -0.0323939 27.0239 1.13397 27.6414 7.4194L27.1864 45.4559V47.1083C26.9589 48.1127 27.4464 49.1818 28.4539 49.6354L107.005 84.9828L32.4513 119.261C32.3213 119.326 32.1913 119.391 32.0938 119.455C29.2013 121.14 28.2589 123.927 28.1614 125.125C28.1289 125.287 28.1289 125.482 28.1289 125.676V203.142C28.1289 204.989 29.6238 206.479 31.4763 206.479H71.9055C73.758 206.479 75.2529 204.989 75.2529 203.142V152.786C75.4048 152.115 75.8257 151.262 76.7904 150.564L146.719 118.386C146.882 118.321 147.077 118.224 147.206 118.095C150.456 116.021 151.464 111.518 151.529 109.379V59.2256C151.659 55.7912 149.384 53.0373 148.246 52.0977L147.239 51.4822C147.109 51.385 146.784 51.223 146.784 51.223L48.896 7.09541L32.5813 0.111117V0.097205H32.5488Z" fill="black"/>
<path d="M262.742 48.9551C275.719 48.9551 286.239 38.0324 286.239 24.5586C286.239 11.0847 275.719 0.162039 262.742 0.162039C249.765 0.162039 239.245 11.0847 239.245 24.5586C239.245 38.0324 249.765 48.9551 262.742 48.9551Z" fill="black"/>
<path fill-rule="evenodd" clip-rule="evenodd" d="M457.315 133.808C457.315 91.5598 493 57.314 537.036 57.314C581.073 57.314 616.757 91.5274 616.757 133.808C616.757 176.089 581.073 210.335 537.036 210.335C493 210.335 457.315 176.057 457.315 133.808ZM505.967 133.808C505.967 151.984 519.877 166.726 537.036 166.726C554.196 166.726 568.106 151.984 568.106 133.808C568.106 115.632 554.196 100.891 537.036 100.891C519.877 100.891 505.967 115.632 505.967 133.808Z" fill="black"/>
</svg>
